# xmcd
#
# Track frame offsets:
#	150
#	10279
#	28009
#	57089
#	68284
#	90779
#	108313
#	122967
#	137435
#	165067
#	173549
#	188134
#	206428
#	231360
#	253122
#	276301
#	298710
#	321747
#
# Disc length: 4688
#
# Revision: 1
# Processed by: cddbd v1.5.1PL0 Copyright (c) Steve Scherf et al.
# Submitted via: CDex 1.50
# Normalized: r0:DSETVAR1,TDELIM( - )
#
DISCID=f2124e12
DTITLE=Various Artist - Bar Jazz Vol.3 - CD1
DYEAR=2003
DGENRE=Jazz
TTITLE0=Ultra Lonunge Brazillian Music - Jazz'n'Samba (So Dance Samba)
TTITLE1=Amel Larrieux - Sophisticated Lady
TTITLE2=thelonicus Monk - Monk's Dream
TTITLE3=George Duke and Lois Armstrong - In A Mellow Tone
TTITLE4=Diana Krall - Autumn Leaves
TTITLE5=Ben Webster - Like Someone In Love
TTITLE6=Shirley Horn Trio - I'll Go My Way By Myself
TTITLE7=Frank Sinatra - I Get A Kick Out Of You
TTITLE8=Spyro Cyra - Bittersweet
TTITLE9=Louis Armstrong - Whistle While You Work
TTITLE10=Gerald Albright - Can You Stop The Rain
TTITLE11=Gerry Mulligan - Moonlight In Vermont
TTITLE12=Stan Getz and Chet Baker - Dear Old Stockholm
TTITLE13=George Duke - Summer Breezin
TTITLE14=Gato Barbieri - Mystica
TTITLE15=Kirk Whalum - Till I Get Right
TTITLE16=Michael Brecker - Chans Song
TTITLE17=Rebecka Turnquist - The Peacecocks
EXTD=YEAR: 2003
EXTT0=
EXTT1=
EXTT2=
EXTT3=
EXTT4=
EXTT5=
EXTT6=
EXTT7=
EXTT8=
EXTT9=
EXTT10=
EXTT11=
EXTT12=
EXTT13=
EXTT14=
EXTT15=
EXTT16=
EXTT17=
PLAYORDER=
